<svg width="38" height="44" fill="none" xmlns="http://www.w3.org/2000/svg"><path d="M34.194.462a1.568 1.568 0 010 2.23L33.029 3.85C40 11.906 39.64 24.055 31.946 31.687A20.662 20.662 0 0118.92 37.63v3.215h3.71c.878 0 1.59.706 1.59 1.577 0 .87-.712 1.577-1.59 1.577h-10.6c-.878 0-1.59-.706-1.59-1.577s.712-1.577 1.59-1.577h3.71V37.63a20.673 20.673 0 01-11.859-4.87l-1.167 1.157a1.6 1.6 0 01-2.248 0 1.568 1.568 0 010-2.23L1.965 30.2c1.05-1.042 2.682-.989 3.705-.08a17.513 17.513 0 0011.654 4.418h.013c4.474-.002 8.947-1.696 12.36-5.082 6.6-6.545 6.823-17.022.67-23.832-.917-1.015-.97-2.633.08-3.675L31.946.462a1.6 1.6 0 012.248 0z" fill="#002134"/><path fill-rule="evenodd" clip-rule="evenodd" d="M3.02 17.19c0-7.84 6.407-14.194 14.31-14.194 7.903 0 14.31 6.354 14.31 14.193 0 7.84-6.407 14.194-14.31 14.194-7.903 0-14.31-6.354-14.31-14.194zM17.33 6.15c-6.147 0-11.13 4.942-11.13 11.04 0 .704.067 1.392.194 2.06a4.775 4.775 0 013.516-1.535c2.634 0 4.77 2.118 4.77 4.731a4.731 4.731 0 01-2.86 4.337 11.148 11.148 0 005.51 1.446c5.392 0 9.888-3.803 10.912-8.852a7.96 7.96 0 01-6.672 3.595c-4.39 0-7.95-3.53-7.95-7.885S17.18 7.2 21.57 7.2c.183 0 .365.006.546.019a11.162 11.162 0 00-4.786-1.07zm-.53 8.937c0-2.613 2.136-4.732 4.77-4.732 2.634 0 4.77 2.119 4.77 4.732s-2.136 4.731-4.77 4.731c-2.634 0-4.77-2.118-4.77-4.731zm-6.89 5.782c-.878 0-1.59.706-1.59 1.577s.712 1.577 1.59 1.577c.878 0 1.59-.706 1.59-1.577 0-.87-.712-1.577-1.59-1.577z" fill="#002134"/></svg>