<svg width="21" height="21" fill="none" xmlns="http://www.w3.org/2000/svg"><path d="M10.423.665c5.39 0 9.758 4.264 9.758 9.525 0 .372-.022.74-.065 1.102a5.38 5.38 0 00-1.4-1.008v-.094a7.88 7.88 0 00-.23-1.905H15.21c.05.494.079 1 .088 1.515a5.42 5.42 0 00-1.46.484v-.094c0-.658-.034-1.295-.1-1.906h-6.63a17.636 17.636 0 00.133 4.762h4.036a5.1 5.1 0 00-.344 1.428H7.555c.636 2.3 1.742 3.811 2.868 3.811.443 0 .884-.235 1.294-.66a9.571 9.571 0 001.365 1.73 9.984 9.984 0 01-2.66.359c-5.388 0-9.755-4.265-9.755-9.524C.666 4.93 5.034.665 10.423.665zm-4.382 13.81H3.385a8.28 8.28 0 003.994 3.248c-.51-.781-.93-1.758-1.239-2.872l-.1-.376zm-.404-6.19H2.36l-.005.015a7.931 7.931 0 00-.226 1.89 7.904 7.904 0 00.531 2.857h3.096a18.88 18.88 0 01-.212-2.857c0-.652.03-1.29.092-1.906zm1.743-5.63l-.022.008a8.24 8.24 0 00-4.496 4.193h2.974c.306-1.669.839-3.123 1.544-4.2zm3.044-.563l-.114.005c-1.233.112-2.426 2.017-2.98 4.759h6.188c-.553-2.733-1.74-4.637-2.971-4.757l-.123-.007zm3.044.562l.103.167c.654 1.059 1.149 2.45 1.44 4.035h2.973a8.231 8.231 0 00-4.233-4.086l-.283-.116zm7.199 12.296a4.234 4.234 0 00-1.286-3.03 4.446 4.446 0 00-3.104-1.255 4.445 4.445 0 00-3.105 1.255 4.234 4.234 0 00-1.286 3.03c0 1.774 1.385 3.633 4.098 5.619a.496.496 0 00.585 0c2.713-1.986 4.098-3.845 4.098-5.619zm-5.854 0a1.398 1.398 0 01.415-1.034 1.495 1.495 0 012.096 0 1.4 1.4 0 01.415 1.034c0 .38-.154.742-.428 1.01a1.482 1.482 0 01-1.035.419c-.388 0-.76-.15-1.035-.419a1.41 1.41 0 01-.428-1.01z" fill="#002134"/></svg>