<svg width="33" height="44" fill="none" xmlns="http://www.w3.org/2000/svg"><path fill-rule="evenodd" clip-rule="evenodd" d="M21.31.135c.63.266 1.039.879 1.039 1.557v15.791h8.944c.607 0 1.168.32 1.474.84.306.52.31 1.161.012 1.685l-1.12 1.965a80.789 80.789 0 01-16.045 19.95l-1.81 1.636c-.5.451-1.222.567-1.84.297a1.692 1.692 0 01-1.017-1.548V26.65h-9.24A1.7 1.7 0 010 24.959c0-.303.08-.587.22-.833A80.858 80.858 0 0115.414 4.33L19.459.472a1.718 1.718 0 011.852-.337zM4.63 23.266h8.024a1.7 1.7 0 011.707 1.693v13.5a77.39 77.39 0 0014.004-17.591h-7.723a1.7 1.7 0 01-1.707-1.693V5.667L17.78 6.77A77.5 77.5 0 004.63 23.266z" fill="#002134"/></svg>