<svg width="20" height="19" fill="none" xmlns="http://www.w3.org/2000/svg"><path fill-rule="evenodd" clip-rule="evenodd" d="M2.727 0A2.72 2.72 0 000 2.714 2.72 2.72 0 002.727 5.43a2.72 2.72 0 002.728-2.715A2.72 2.72 0 002.727 0zm-.909 2.714c0-.5.407-.904.91-.904.501 0 .908.405.908.904 0 .5-.407.905-.909.905a.907.907 0 01-.909-.905zm11.818 2.715a6.38 6.38 0 00-4.5 1.855 6.318 6.318 0 00-1.863 4.478v6.333c0 .5.407.905.909.905h3.636c.502 0 .91-.405.91-.905v-6.333a.903.903 0 01.908-.905.912.912 0 01.91.905v6.333c0 .5.407.905.909.905h3.636a.907.907 0 00.909-.905v-6.333c0-1.68-.67-3.29-1.864-4.478a6.379 6.379 0 00-4.5-1.855zm0 1.81a4.557 4.557 0 00-3.214 1.324 4.513 4.513 0 00-1.331 3.199v5.428h1.818v-5.428c0-.72.287-1.41.799-1.92a2.734 2.734 0 013.857 0c.511.51.799 1.2.799 1.92v5.428h1.818v-5.428c0-1.2-.48-2.35-1.331-3.199a4.557 4.557 0 00-3.215-1.325zM0 7.238c0-.5.407-.905.91-.905h3.635c.503 0 .91.405.91.905v10.857c0 .5-.407.905-.91.905H.91a.907.907 0 01-.91-.905V7.238zm1.818.905v9.047h1.818V8.143H1.818z" fill="#272523"/></svg>