<svg width="44" height="44" fill="none" xmlns="http://www.w3.org/2000/svg"><path d="M22 14.326a7.674 7.674 0 100 15.348 7.674 7.674 0 000-15.348z" fill="#002134"/><path fill-rule="evenodd" clip-rule="evenodd" d="M22 0c.848 0 1.535.687 1.535 1.535v2.623c8.665.735 15.571 7.642 16.307 16.307h2.623a1.535 1.535 0 010 3.07h-2.623C39.106 32.2 32.2 39.106 23.535 39.842v2.623a1.535 1.535 0 01-3.07 0v-2.623C11.8 39.106 4.893 32.2 4.158 23.535H1.535a1.535 1.535 0 010-3.07h2.623C4.893 11.8 11.8 4.893 20.465 4.158V1.535C20.465.687 21.152 0 22 0zM7.163 22c0 8.194 6.643 14.837 14.837 14.837 8.194 0 14.837-6.643 14.837-14.837 0-8.194-6.643-14.837-14.837-14.837-8.194 0-14.837 6.643-14.837 14.837z" fill="#002134"/></svg>