<svg width="44" height="38" fill="none" xmlns="http://www.w3.org/2000/svg"><path d="M15.72 6.328c0-1.678.662-3.288 1.84-4.475A6.255 6.255 0 0122 0c1.665 0 3.263.667 4.44 1.853a6.353 6.353 0 011.84 4.475 6.353 6.353 0 01-1.84 4.475A6.255 6.255 0 0122 12.656a6.255 6.255 0 01-4.44-1.853 6.353 6.353 0 01-1.84-4.475zM22 3.168a3.115 3.115 0 00-2.218.925 3.163 3.163 0 00-.919 2.235 3.183 3.183 0 00.92 2.235A3.135 3.135 0 0022 9.49c.832 0 1.63-.333 2.218-.926a3.173 3.173 0 00.919-2.235c0-.838-.33-1.642-.92-2.235A3.124 3.124 0 0022 3.167zm9.429 4.744a4.783 4.783 0 011.38-3.36 4.71 4.71 0 013.334-1.391 4.683 4.683 0 013.333 1.391 4.754 4.754 0 011.381 3.36 4.77 4.77 0 01-1.38 3.359 4.696 4.696 0 01-3.334 1.391c-1.25 0-2.45-.5-3.334-1.391a4.77 4.77 0 01-1.38-3.36zm4.714-1.584c-.417 0-.817.167-1.111.464a1.59 1.59 0 000 2.24 1.565 1.565 0 002.222 0 1.59 1.59 0 000-2.24 1.565 1.565 0 00-1.111-.464zM7.857 3.161c-1.25 0-2.45.5-3.333 1.391a4.77 4.77 0 00-1.381 3.36 4.77 4.77 0 001.38 3.359 4.696 4.696 0 003.334 1.391c1.25 0 2.45-.5 3.334-1.391a4.77 4.77 0 001.38-3.36 4.77 4.77 0 00-1.38-3.359 4.696 4.696 0 00-3.334-1.391zM6.286 7.91c0-.42.165-.822.46-1.12a1.565 1.565 0 012.222 0 1.59 1.59 0 010 2.24 1.565 1.565 0 01-2.222 0 1.59 1.59 0 01-.46-1.12zm3.985 7.919a6.34 6.34 0 00-.842 3.167H3.143v7.918c0 .788.194 1.563.565 2.257a4.738 4.738 0 001.56 1.715 4.692 4.692 0 004.462.389c.233 1.048.597 2.05 1.069 2.984a7.802 7.802 0 01-7.337-.78 7.897 7.897 0 01-2.543-2.847A7.967 7.967 0 010 26.915v-7.918c0-.84.331-1.646.92-2.24a3.13 3.13 0 012.223-.927h7.128zM33.2 34.26a7.802 7.802 0 007.337-.78 7.896 7.896 0 002.543-2.847A7.967 7.967 0 0044 26.915v-7.918a3.18 3.18 0 00-.92-2.24 3.13 3.13 0 00-2.223-.927H33.73c.534.93.842 2.01.842 3.167h6.286v7.918a4.78 4.78 0 01-.565 2.257 4.738 4.738 0 01-1.56 1.715 4.693 4.693 0 01-4.462.389A12.901 12.901 0 0133.2 34.26zM15.714 15.827a3.13 3.13 0 00-2.222.927 3.18 3.18 0 00-.92 2.24v9.504a9.54 9.54 0 002.761 6.72A9.392 9.392 0 0022 38c2.5 0 4.899-1.001 6.667-2.783a9.54 9.54 0 002.762-6.719v-9.501a3.18 3.18 0 00-.921-2.24 3.13 3.13 0 00-2.222-.927H15.714v-.004zm0 3.167h12.572v9.504a6.36 6.36 0 01-1.841 4.48A6.261 6.261 0 0122 34.832a6.261 6.261 0 01-4.445-1.855 6.36 6.36 0 01-1.84-4.48v-9.504z" fill="#002134"/></svg>