<svg width="21" height="17" fill="none" xmlns="http://www.w3.org/2000/svg"><path d="M20.985 1.188a.907.907 0 00-1.373-.78 6.8 6.8 0 01-1.702.72A4.684 4.684 0 0014.844 0a4.757 4.757 0 00-4.748 4.598 10.028 10.028 0 01-6.192-3.563.92.92 0 00-.779-.332.908.908 0 00-.714.454 4.788 4.788 0 00-.22 4.33l-.001.002a.946.946 0 00-.45.807 2.76 2.76 0 00.024.4 4.707 4.707 0 001.425 3.007.906.906 0 00-.06.7 4.727 4.727 0 002.146 2.653 6.79 6.79 0 01-3.262.407.909.909 0 00-.604 1.664A11.77 11.77 0 007.779 17c2.562.03 5.062-.789 7.11-2.327a11.612 11.612 0 004.218-6.176 11.6 11.6 0 00.486-3.31v-.183a5.239 5.239 0 001.392-3.815zM17.98 4.105a.903.903 0 00-.212.638c.009.15.008.3.008.442a9.824 9.824 0 01-.413 2.798 9.715 9.715 0 01-9.584 7.2 9.95 9.95 0 01-2.318-.273 8.617 8.617 0 002.674-1.42.909.909 0 00-.547-1.622 2.917 2.917 0 01-2.012-.848c.136-.026.27-.058.405-.096a.909.909 0 00-.073-1.765 2.908 2.908 0 01-2.045-1.567c.165.022.33.036.496.042A.928.928 0 005.252 7a.907.907 0 00-.364-1.032A2.903 2.903 0 013.6 3.362a11.832 11.832 0 007.46 3.16.928.928 0 00.743-.326.909.909 0 00.187-.788 2.863 2.863 0 01-.079-.662 2.933 2.933 0 014.095-2.69c.367.16.697.394.968.687a.902.902 0 00.837.27c.374-.072.742-.17 1.102-.292-.246.502-.56.968-.933 1.384z" fill="#272523"/></svg>