<svg width="165" height="52" fill="none" xmlns="http://www.w3.org/2000/svg"><path d="M0 25.938c0-5.519 0-8.278.541-10.557A20 20 0 0115.38.542c2.278-.54 5.038-.54 10.556-.54 5.52 0 8.279 0 10.557.54a20 20 0 0114.839 14.839c.541 2.279.541 5.038.541 10.557s0 8.278-.541 10.557a20 20 0 01-14.839 14.839c-2.278.54-5.038.54-10.557.54-5.518 0-8.278 0-10.556-.54A20 20 0 01.54 36.493C0 34.217 0 31.458 0 25.939z" fill="#003350"/><path d="M36.733 16.354a3.483 3.483 0 100-6.966 3.483 3.483 0 000 6.966z" fill="url(#paint0_linear_678_961)"/><path fill-rule="evenodd" clip-rule="evenodd" d="M33.286 22.19H18.615v-9.177a3.488 3.488 0 00-6.971 0v25.322a3.488 3.488 0 006.97 0v-9.178h14.631v9.13a3.488 3.488 0 003.488 3.489 3.488 3.488 0 003.483-3.489v-9.13h.005c0-.092-.001-.183-.005-.274v-4.01c0-1.481-1.2-2.682-2.682-2.682h-4.248z" fill="url(#paint1_linear_678_961)"/><path d="M64.779 41.753c-.222 0-.393-.061-.515-.183-.114-.128-.172-.303-.172-.525V35.25H62c-.186 0-.332-.05-.44-.15a.604.604 0 01-.15-.43c0-.185.05-.325.15-.417.108-.1.254-.15.44-.15h5.558c.186 0 .329.05.429.15.107.093.16.232.16.418a.58.58 0 01-.16.429c-.1.1-.243.15-.43.15h-2.091v5.794c0 .221-.058.397-.172.525-.114.122-.286.183-.515.183zm6.094.021c-.38 0-.72-.071-1.02-.214a1.848 1.848 0 01-.697-.601 1.51 1.51 0 01-.247-.848c0-.386.1-.69.3-.912.2-.228.526-.393.977-.493.45-.1 1.055-.15 1.813-.15h.537v.772h-.526c-.444 0-.798.022-1.062.064-.265.043-.454.118-.569.226-.107.1-.16.243-.16.429 0 .236.081.43.246.58.164.15.393.225.686.225.237 0 .444-.054.623-.161.186-.115.332-.269.44-.462.107-.193.16-.414.16-.665V38.33c0-.357-.078-.615-.236-.772-.157-.157-.422-.236-.793-.236a3.365 3.365 0 00-1.427.332.53.53 0 01-.365.054.41.41 0 01-.236-.172.563.563 0 01-.086-.3.62.62 0 01.086-.311.511.511 0 01.29-.236 4.625 4.625 0 011.781-.376c.514 0 .936.08 1.265.236.337.158.587.397.751.72.165.314.247.722.247 1.222v2.575c0 .222-.053.394-.16.515-.108.115-.262.172-.462.172s-.358-.057-.472-.172c-.107-.121-.161-.293-.161-.515v-.515h.086a1.456 1.456 0 01-.848 1.073c-.221.1-.475.15-.761.15zm7.111 0c-.593 0-1.04-.168-1.34-.504-.301-.343-.451-.844-.451-1.502v-5.075c0-.221.057-.39.171-.504.115-.114.28-.172.494-.172.214 0 .379.058.493.172.122.114.183.283.183.504v5.01c0 .33.068.573.204.73.143.157.343.236.6.236h.161l.15-.021c.1-.015.169.014.204.086.036.064.054.2.054.407 0 .18-.036.319-.107.419-.072.1-.19.16-.354.182a30.18 30.18 0 01-.226.022c-.078.007-.157.01-.236.01zm5.348 0c-.594 0-1.105-.11-1.534-.332a2.398 2.398 0 01-.998-.944c-.229-.408-.343-.89-.343-1.449 0-.543.11-1.019.332-1.427.23-.407.54-.726.934-.955.4-.236.855-.354 1.362-.354.372 0 .705.061.998.183.3.121.554.297.762.526.214.228.375.507.483.836.114.322.171.687.171 1.095a.357.357 0 01-.14.3c-.085.064-.21.097-.375.097H81.54v-.773h3.015l-.172.161c0-.329-.05-.604-.15-.826a1.047 1.047 0 00-.418-.504c-.179-.122-.404-.183-.676-.183-.3 0-.558.072-.772.215a1.327 1.327 0 00-.483.59c-.108.25-.161.55-.161.901v.075c0 .587.136 1.027.407 1.32.28.286.687.43 1.224.43a3.4 3.4 0 00.622-.065 2.4 2.4 0 00.665-.247c.15-.086.282-.122.397-.107a.376.376 0 01.268.118c.072.071.115.16.129.268a.502.502 0 01-.064.311c-.05.107-.14.2-.269.279-.25.157-.54.275-.869.354a4.17 4.17 0 01-.9.107zm5.075-.021c-.215 0-.38-.057-.494-.172-.114-.121-.171-.293-.171-.515v-4.055c0-.222.057-.39.171-.505.115-.114.276-.171.483-.171.207 0 .368.057.483.172.114.114.171.282.171.504v.73l-.118-.269c.158-.379.4-.665.73-.858.336-.2.715-.3 1.137-.3.422 0 .769.078 1.04.235.273.158.477.397.612.72.136.314.204.715.204 1.2v2.597c0 .222-.057.394-.171.515-.115.115-.28.172-.494.172-.215 0-.383-.057-.504-.172-.115-.121-.172-.293-.172-.515v-2.532c0-.407-.078-.704-.236-.89-.15-.186-.386-.28-.708-.28-.393 0-.708.126-.944.376-.229.243-.343.569-.343.977v2.35c0 .457-.226.686-.676.686zm9.194.021c-.465 0-.855-.078-1.17-.236a1.519 1.519 0 01-.686-.686c-.15-.308-.226-.687-.226-1.138V37.43h-.558c-.171 0-.303-.043-.397-.129a.507.507 0 01-.139-.375c0-.165.047-.29.14-.376.093-.085.225-.128.397-.128h.557v-.977c0-.221.058-.39.172-.504.122-.114.29-.172.504-.172.215 0 .38.058.494.172.114.114.171.283.171.504v.977h1.138c.171 0 .304.043.397.128.093.086.14.211.14.376a.507.507 0 01-.14.375c-.093.086-.226.13-.397.13H96.86v2.21c0 .343.076.6.226.772.15.171.393.257.73.257.12 0 .228-.01.321-.032.093-.021.175-.036.247-.043a.246.246 0 01.215.086c.057.057.085.179.085.365a.954.954 0 01-.075.386.389.389 0 01-.246.225 2.474 2.474 0 01-.365.075c-.15.029-.283.043-.397.043zm9.723 0c-.315 0-.63-.025-.944-.075a4.906 4.906 0 01-.891-.204 3.668 3.668 0 01-.751-.364.69.69 0 01-.322-.666.655.655 0 01.14-.31.489.489 0 01.29-.172c.114-.022.239.01.375.096.315.186.647.322.998.408.35.086.719.129 1.105.129.565 0 .976-.093 1.234-.28.257-.192.386-.44.386-.74a.703.703 0 00-.279-.59c-.179-.143-.49-.26-.933-.354l-1.181-.246c-.679-.144-1.187-.383-1.523-.72-.329-.343-.494-.793-.494-1.351a2.106 2.106 0 01.816-1.695c.264-.208.576-.365.933-.472a4 4 0 011.202-.172c.429 0 .837.054 1.223.16.386.108.733.266 1.041.473a.552.552 0 01.225.29.634.634 0 01.032.343.536.536 0 01-.15.279.494.494 0 01-.301.14c-.114.014-.246-.022-.397-.108a3.04 3.04 0 00-.804-.322 3.817 3.817 0 00-.88-.096c-.329 0-.611.046-.848.14a1.225 1.225 0 00-.547.396.969.969 0 00-.182.59c0 .258.086.465.257.623.172.15.465.268.88.353l1.17.247c.708.15 1.233.387 1.577.708.35.322.525.751.525 1.288 0 .343-.071.654-.214.933a1.986 1.986 0 01-.601.719 2.78 2.78 0 01-.933.461 4.371 4.371 0 01-1.234.161zm7.605 0c-.544 0-1.016-.11-1.416-.332a2.326 2.326 0 01-.934-.944c-.221-.415-.332-.902-.332-1.46 0-.421.061-.797.182-1.126.129-.336.311-.622.547-.858.236-.244.519-.426.848-.547a3.01 3.01 0 011.105-.194c.544 0 1.016.111 1.416.333.401.222.712.536.934.944.221.408.332.89.332 1.448 0 .423-.064.802-.193 1.138a2.41 2.41 0 01-.536.869 2.44 2.44 0 01-.848.547 3.168 3.168 0 01-1.105.182zm0-1.019c.265 0 .497-.064.697-.193.201-.129.354-.318.462-.569.114-.257.171-.576.171-.955 0-.572-.121-.997-.364-1.276-.244-.286-.565-.43-.966-.43-.265 0-.497.065-.697.194a1.21 1.21 0 00-.472.568c-.108.25-.161.565-.161.944 0 .566.121.995.364 1.288.244.286.565.43.966.43zm6.761 1.02c-.594 0-1.041-.169-1.341-.505-.301-.343-.451-.844-.451-1.502v-5.075c0-.221.057-.39.172-.504.114-.114.279-.172.493-.172.215 0 .379.058.494.172.121.114.182.283.182.504v5.01c0 .33.068.573.204.73.143.157.343.236.601.236h.161l.15-.021c.1-.015.168.014.204.086.036.064.054.2.054.407 0 .18-.036.319-.108.419-.071.1-.189.16-.354.182l-.225.022a2.66 2.66 0 01-.236.01zm4.713 0c-.436 0-.797-.08-1.083-.237a1.532 1.532 0 01-.644-.73c-.136-.321-.204-.722-.204-1.2V37.01c0-.23.057-.397.172-.505.114-.114.279-.171.493-.171.215 0 .379.057.494.172.122.107.182.275.182.504v2.617c0 .373.075.648.226.827.15.178.389.268.718.268.358 0 .651-.122.88-.365.229-.25.343-.58.343-.987v-2.36c0-.23.058-.397.172-.505.115-.114.279-.171.494-.171.214 0 .379.057.493.172.122.107.183.275.183.504v4.055c0 .458-.219.687-.655.687-.207 0-.368-.057-.483-.172-.114-.121-.171-.293-.171-.515v-.815l.15.322a1.84 1.84 0 01-.687.89c-.3.208-.658.311-1.073.311zm7.898 0c-.465 0-.855-.08-1.17-.237a1.52 1.52 0 01-.686-.686c-.15-.308-.226-.687-.226-1.138V37.43h-.557c-.172 0-.304-.043-.397-.129a.508.508 0 01-.14-.375c0-.165.047-.29.14-.376.093-.085.225-.128.397-.128h.557v-.977c0-.221.058-.39.172-.504.122-.114.29-.172.504-.172.215 0 .379.058.494.172.114.114.172.283.172.504v.977h1.137c.171 0 .304.043.397.128.093.086.139.211.139.376a.507.507 0 01-.139.375c-.093.086-.226.13-.397.13h-1.137v2.21c0 .343.075.6.225.772.15.171.393.257.729.257.122 0 .229-.01.322-.032.093-.021.175-.036.247-.043a.247.247 0 01.215.086c.057.057.085.179.085.365a.956.956 0 01-.075.386.39.39 0 01-.246.225 2.483 2.483 0 01-.365.075c-.15.029-.283.043-.397.043zm3.696-.033c-.215 0-.379-.064-.494-.193-.114-.129-.172-.308-.172-.536v-3.938c0-.236.058-.415.172-.536.115-.13.279-.193.494-.193.214 0 .379.064.493.193.122.121.183.3.183.536v3.938c0 .228-.058.407-.172.536-.115.129-.283.193-.504.193zm0-6.394c-.251 0-.447-.061-.59-.183-.136-.128-.204-.304-.204-.525 0-.23.068-.404.204-.526.143-.122.339-.182.59-.182.257 0 .454.06.59.182.136.122.204.297.204.526 0 .221-.068.397-.204.525-.136.122-.333.183-.59.183zm5.642 6.426c-.544 0-1.016-.11-1.417-.332a2.33 2.33 0 01-.933-.944c-.222-.415-.332-.902-.332-1.46 0-.421.06-.797.182-1.126.129-.336.311-.622.547-.858.236-.244.519-.426.848-.547a3.01 3.01 0 011.105-.194c.543 0 1.015.111 1.416.333.4.222.712.536.933.944.222.408.333.89.333 1.448 0 .423-.065.802-.193 1.138a2.412 2.412 0 01-.537.869 2.437 2.437 0 01-.847.547 3.172 3.172 0 01-1.105.182zm0-1.019c.264 0 .497-.064.697-.193.2-.129.354-.318.461-.569.115-.257.172-.576.172-.955 0-.572-.122-.997-.365-1.276-.243-.286-.565-.43-.965-.43a1.222 1.222 0 00-1.17.762c-.107.25-.161.565-.161.944 0 .566.122.995.365 1.288.243.286.565.43.966.43zm5.634.998c-.214 0-.379-.057-.493-.172-.115-.121-.172-.293-.172-.515v-4.055c0-.222.057-.39.172-.505.114-.114.275-.171.482-.171.208 0 .369.057.483.172.115.114.172.282.172.504v.73l-.118-.269c.157-.379.4-.665.729-.858.337-.2.716-.3 1.138-.3.422 0 .768.078 1.04.235.272.158.476.397.612.72.136.314.204.715.204 1.2v2.597c0 .222-.058.394-.172.515-.114.115-.279.172-.494.172-.214 0-.382-.057-.504-.172-.114-.121-.171-.293-.171-.515v-2.532c0-.407-.079-.704-.236-.89-.151-.186-.387-.28-.709-.28-.393 0-.708.126-.944.376-.229.243-.343.569-.343.977v2.35c0 .457-.225.686-.676.686zm8.711.021c-.307 0-.633-.032-.976-.096a2.895 2.895 0 01-.923-.333.677.677 0 01-.246-.247.613.613 0 01-.054-.29.52.52 0 01.107-.257.448.448 0 01.236-.14.485.485 0 01.322.054c.286.136.554.233.805.29.25.05.497.075.74.075.343 0 .597-.057.762-.172a.556.556 0 00.257-.472.441.441 0 00-.171-.375c-.108-.093-.272-.161-.494-.204l-1.073-.204c-.443-.086-.783-.246-1.019-.483-.229-.243-.343-.554-.343-.933 0-.343.093-.64.279-.89.193-.25.457-.444.794-.58a3.07 3.07 0 011.158-.204c.315 0 .608.036.88.108.279.064.547.168.805.31a.436.436 0 01.214.226c.043.093.054.19.032.29a.623.623 0 01-.128.257.452.452 0 01-.247.14.565.565 0 01-.322-.065 2.882 2.882 0 00-.644-.246 2.38 2.38 0 00-.579-.075c-.35 0-.612.06-.783.182a.57.57 0 00-.247.483c0 .15.05.275.15.375.1.1.254.168.462.204l1.072.204c.465.086.816.243 1.052.472.243.229.365.536.365.923 0 .522-.204.933-.612 1.233-.408.294-.951.44-1.631.44zM63.728 27.538c-.53 0-.94-.145-1.23-.436-.273-.307-.41-.726-.41-1.255v-15.09c0-.546.137-.965.41-1.255.29-.29.7-.436 1.23-.436s.93.145 1.204.436c.29.29.436.709.436 1.255v6.046h9.3v-6.046c0-.546.136-.965.41-1.255.29-.29.7-.436 1.23-.436.529 0 .93.145 1.203.436.29.29.436.709.436 1.255v15.09c0 .53-.145.948-.436 1.255-.273.29-.674.436-1.204.436-.53 0-.94-.145-1.23-.436-.273-.307-.41-.726-.41-1.255v-6.302h-9.3v6.302c0 .53-.136.948-.41 1.255-.272.29-.682.436-1.229.436zm19.457-.026c-.513 0-.906-.153-1.179-.46-.273-.308-.41-.735-.41-1.282v-9.402c0-.564.137-.99.41-1.281.273-.308.666-.461 1.179-.461.512 0 .905.153 1.178.46.29.291.436.718.436 1.282v9.402c0 .547-.137.974-.41 1.281-.274.308-.675.461-1.204.461zm0-15.269c-.598 0-1.068-.145-1.41-.436-.324-.307-.486-.725-.486-1.255 0-.546.162-.965.486-1.255.342-.29.812-.436 1.41-.436.614 0 1.084.145 1.409.436.324.29.486.709.486 1.255 0 .53-.162.948-.486 1.255-.325.29-.794.436-1.41.436zm6.58 15.295c-.529 0-.939-.137-1.229-.41-.273-.29-.41-.7-.41-1.23v-9.684c0-.53.137-.93.41-1.204.273-.273.658-.41 1.153-.41s.88.137 1.153.41c.273.273.41.675.41 1.204v1.614h-.256c.239-1.025.708-1.802 1.409-2.331.7-.53 1.63-.846 2.792-.948.359-.034.64.06.846.282.222.205.35.53.384.973.034.427-.068.777-.308 1.05-.222.257-.563.41-1.024.462l-.564.051c-1.042.102-1.828.427-2.357.973-.53.53-.794 1.282-.794 2.255v5.303c0 .53-.137.94-.41 1.23-.273.273-.675.41-1.204.41zm14.368.051c-1.418 0-2.639-.264-3.664-.794a5.73 5.73 0 01-2.382-2.255c-.547-.973-.82-2.126-.82-3.458 0-1.298.265-2.434.794-3.408a5.957 5.957 0 012.229-2.28c.957-.563 2.041-.845 3.254-.845.888 0 1.682.145 2.382.435a4.89 4.89 0 011.819 1.256c.513.546.897 1.212 1.153 1.998.274.769.41 1.64.41 2.613 0 .308-.111.547-.333.718-.205.153-.504.23-.897.23h-8.224v-1.844h7.2l-.41.384c0-.786-.12-1.443-.359-1.973-.222-.53-.555-.93-.999-1.204-.427-.29-.965-.435-1.614-.435-.717 0-1.332.17-1.845.512-.495.324-.879.794-1.153 1.409-.256.598-.384 1.315-.384 2.152v.18c0 1.4.325 2.45.974 3.15.666.684 1.639 1.025 2.92 1.025.444 0 .94-.05 1.486-.153a5.738 5.738 0 001.589-.59c.358-.205.674-.29.948-.256.273.017.486.111.64.282.171.17.273.384.307.64.035.24-.017.487-.153.744-.12.256-.333.478-.641.666a6.872 6.872 0 01-2.075.845 9.957 9.957 0 01-2.152.256zm11.99 0c-1.418 0-2.485-.401-3.203-1.204-.717-.82-1.076-2.015-1.076-3.587V10.68c0-.53.137-.93.41-1.204.274-.273.666-.41 1.179-.41.512 0 .905.137 1.178.41.291.273.436.675.436 1.204v11.965c0 .785.162 1.366.487 1.742.341.375.819.563 1.434.563h.385l.358-.05c.239-.035.402.033.487.204.085.154.128.478.128.974 0 .427-.085.76-.256.999-.171.239-.453.384-.846.435-.17.017-.35.035-.538.052a6.185 6.185 0 01-.563.025zm9.491 0c-1.298 0-2.426-.264-3.382-.794a5.55 5.55 0 01-2.229-2.255c-.529-.99-.794-2.152-.794-3.484 0-1.008.145-1.904.435-2.69a5.781 5.781 0 011.307-2.05 5.377 5.377 0 012.024-1.306c.786-.307 1.665-.461 2.639-.461 1.298 0 2.425.265 3.381.794a5.55 5.55 0 012.229 2.255c.53.973.795 2.126.795 3.458 0 1.008-.154 1.913-.462 2.716a5.733 5.733 0 01-1.281 2.075c-.563.564-1.238 1-2.024 1.307-.785.29-1.665.435-2.638.435zm0-2.434c.632 0 1.187-.153 1.665-.46.478-.308.845-.76 1.102-1.359.273-.614.41-1.375.41-2.28 0-1.366-.291-2.382-.872-3.049-.58-.683-1.349-1.024-2.305-1.024-.632 0-1.187.153-1.666.46-.478.291-.854.744-1.127 1.359-.256.598-.384 1.349-.384 2.254 0 1.35.29 2.374.871 3.075.581.683 1.349 1.024 2.306 1.024zm13.173 2.434c-.906 0-1.717-.17-2.434-.512-.701-.359-1.256-.837-1.666-1.435a3.61 3.61 0 01-.589-2.024c0-.922.239-1.648.718-2.177.478-.547 1.255-.94 2.331-1.179 1.076-.24 2.519-.359 4.33-.359h1.281v1.845h-1.256c-1.059 0-1.904.051-2.536.154-.632.102-1.085.281-1.358.538-.256.239-.384.58-.384 1.024 0 .564.196 1.025.589 1.384.393.359.939.538 1.64.538.563 0 1.059-.128 1.486-.384.444-.274.794-.64 1.05-1.102.256-.461.384-.99.384-1.588v-2.947c0-.854-.188-1.469-.563-1.844-.376-.376-1.008-.564-1.896-.564-.495 0-1.034.06-1.614.18a8.6 8.6 0 00-1.794.614c-.324.154-.614.197-.871.128a.977.977 0 01-.563-.41 1.342 1.342 0 01-.205-.717c0-.256.068-.504.205-.743.136-.256.367-.444.691-.564a11.647 11.647 0 012.255-.691 11.01 11.01 0 011.998-.205c1.23 0 2.238.188 3.023.564a3.728 3.728 0 011.794 1.716c.393.752.589 1.725.589 2.92v6.15c0 .529-.128.939-.384 1.23-.256.272-.624.409-1.102.409-.478 0-.854-.137-1.127-.41-.256-.29-.384-.7-.384-1.23v-1.23h.204a3.544 3.544 0 01-.717 1.563 3.47 3.47 0 01-1.306 1c-.53.239-1.136.358-1.819.358zm14.702 0c-1.093 0-2.058-.264-2.895-.794-.82-.53-1.46-1.281-1.921-2.255-.462-.99-.692-2.152-.692-3.484 0-1.35.23-2.502.692-3.458.461-.974 1.101-1.725 1.921-2.255.837-.53 1.802-.794 2.895-.794 1.042 0 1.947.256 2.716.768.785.513 1.315 1.187 1.588 2.024h-.282v-6.66c0-.53.137-.932.41-1.205.273-.273.666-.41 1.179-.41.512 0 .905.137 1.178.41.291.273.436.675.436 1.204v15.218c0 .53-.137.94-.41 1.23-.273.273-.666.41-1.179.41-.512 0-.905-.137-1.178-.41-.273-.29-.41-.7-.41-1.23V23.9l.282.769c-.256.888-.777 1.596-1.563 2.126-.786.53-1.708.794-2.767.794zm.897-2.434c.632 0 1.187-.153 1.665-.46.478-.308.845-.76 1.102-1.359.273-.614.41-1.375.41-2.28 0-1.366-.291-2.382-.872-3.049-.58-.683-1.349-1.024-2.305-1.024-.632 0-1.187.153-1.666.46-.478.291-.854.744-1.127 1.359-.256.598-.384 1.349-.384 2.254 0 1.35.29 2.374.871 3.075.581.683 1.349 1.024 2.306 1.024z" fill="#fff"/><defs><linearGradient id="paint0_linear_678_961" x1="33.245" y1="12.871" x2="40.216" y2="12.871" gradientUnits="userSpaceOnUse"><stop stop-color="#22E5E9"/><stop offset="1" stop-color="#22E5E9"/></linearGradient><linearGradient id="paint1_linear_678_961" x1="36.733" y1="22.191" x2="36.733" y2="41.776" gradientUnits="userSpaceOnUse"><stop stop-color="#22E5E9"/><stop offset=".02" stop-color="#21E2E7"/><stop offset=".3" stop-color="#13C0D2"/><stop offset=".56" stop-color="#08A7C3"/><stop offset=".8" stop-color="#0298BA"/><stop offset="1" stop-color="#0093B7"/></linearGradient></defs></svg>