<svg width="172" height="89" fill="none" xmlns="http://www.w3.org/2000/svg"><g filter="url(#filter0_iii_710_3170)"><path d="M15.865 68.386c6.84-28.32 30.665-48.01 56.068-51.008 12.586-1.486 25.564 1.119 37.228 8.831 10.364 6.852 20.054 17.983 27.434 34.62l-19.116-13.22a8 8 0 00-9.102 13.159l36.944 25.551c5.746 3.974 13.692.982 15.389-5.795l11.018-43.991a8 8 0 00-15.521-3.887l-5.273 21.056c-8.399-18.657-19.8-32.146-32.948-40.84C102.99 2.949 86.183-.414 70.058 1.489 38.038 5.266 8.732 29.77.312 64.629a8 8 0 0015.553 3.757z" fill="#27FDFD"/></g><defs><filter id="filter0_iii_710_3170" x="-19.914" y="-25.02" width="211.883" height="137.122" filterUnits="userSpaceOnUse" color-interpolation-filters="sRGB"><feFlood flood-opacity="0" result="BackgroundImageFix"/><feBlend in="SourceGraphic" in2="BackgroundImageFix" result="shape"/><feColorMatrix in="SourceAlpha" values="0 0 0 0 0 0 0 0 0 0 0 0 0 0 0 0 0 0 127 0" result="hardAlpha"/><feOffset dx="20" dy="24"/><feGaussianBlur stdDeviation="15"/><feComposite in2="hardAlpha" operator="arithmetic" k2="-1" k3="1"/><feColorMatrix values="0 0 0 0 0.152941 0 0 0 0 0.992157 0 0 0 0 0.992157 0 0 0 1 0"/><feBlend in2="shape" result="effect1_innerShadow_710_3170"/><feColorMatrix in="SourceAlpha" values="0 0 0 0 0 0 0 0 0 0 0 0 0 0 0 0 0 0 127 0" result="hardAlpha"/><feOffset dx="-20" dy="-26"/><feGaussianBlur stdDeviation="20"/><feComposite in2="hardAlpha" operator="arithmetic" k2="-1" k3="1"/><feColorMatrix values="0 0 0 0 0.00392157 0 0 0 0 0.203922 0 0 0 0 0.168627 0 0 0 0.45 0"/><feBlend in2="effect1_innerShadow_710_3170" result="effect2_innerShadow_710_3170"/><feColorMatrix in="SourceAlpha" values="0 0 0 0 0 0 0 0 0 0 0 0 0 0 0 0 0 0 127 0" result="hardAlpha"/><feOffset dx="20" dy="24"/><feGaussianBlur stdDeviation="15"/><feComposite in2="hardAlpha" operator="arithmetic" k2="-1" k3="1"/><feColorMatrix values="0 0 0 0 0.152941 0 0 0 0 0.992157 0 0 0 0 0.992157 0 0 0 1 0"/><feBlend in2="effect2_innerShadow_710_3170" result="effect3_innerShadow_710_3170"/></filter></defs></svg>