<svg width="0" height="0" style="position:absolute"><symbol viewBox="0 0 21 20" id="briefcase" xmlns="http://www.w3.org/2000/svg"><path d="M12.666 4.667v-2h-4v2h4zm-10 2v11h16v-11h-16zm16-2c1.11 0 2 .89 2 2v11c0 1.11-.89 2-2 2h-16c-1.11 0-2-.89-2-2l.01-11c0-1.11.88-2 1.99-2h4v-2c0-1.11.89-2 2-2h4c1.11 0 2 .89 2 2v2h4z"/></symbol><symbol viewBox="0 0 20 16" id="envelope" xmlns="http://www.w3.org/2000/svg"><path d="M17 0H3a3 3 0 00-3 3v10a3 3 0 003 3h14a3 3 0 003-3V3a3 3 0 00-3-3zM3 2h14a1 1 0 011 1l-8 4.88L2 3a1 1 0 011-1zm15 11a1 1 0 01-1 1H3a1 1 0 01-1-1V5.28l7.48 4.57a1 1 0 001 0L18 5.28V13z"/></symbol><symbol viewBox="0 0 24 21" id="filter" xmlns="http://www.w3.org/2000/svg"><path fill-rule="evenodd" clip-rule="evenodd" d="M11.1 4.5H1a1 1 0 000 2h10.1a5.002 5.002 0 009.801-.005c.032.003.066.005.099.005h2a1 1 0 100-2h-2c-.033 0-.067.002-.099.005A5.002 5.002 0 0011.1 4.5zm1.9 1a3 3 0 116 0 3 3 0 01-6 0zM9 10.5a5.002 5.002 0 014.9 4H23a1 1 0 110 2h-9.1a5.002 5.002 0 01-9.8 0H1a1 1 0 110-2h3.1a5.002 5.002 0 014.9-4zm0 2a3 3 0 110 6 3 3 0 010-6z"/></symbol><symbol viewBox="0 0 38 44" id="globe" xmlns="http://www.w3.org/2000/svg"><path d="M34.194.462a1.568 1.568 0 010 2.23L33.029 3.85C40 11.906 39.64 24.055 31.946 31.687A20.662 20.662 0 0118.92 37.63v3.215h3.71c.878 0 1.59.706 1.59 1.577 0 .87-.712 1.577-1.59 1.577h-10.6c-.878 0-1.59-.706-1.59-1.577s.712-1.577 1.59-1.577h3.71V37.63A20.673 20.673 0 013.881 32.76l-1.167 1.157a1.6 1.6 0 01-2.248 0 1.568 1.568 0 010-2.23L1.965 30.2c1.05-1.042 2.682-.989 3.705-.08a17.513 17.513 0 0011.654 4.418H17.337c4.474-.002 8.947-1.696 12.36-5.082 6.6-6.545 6.823-17.022.67-23.832-.917-1.015-.97-2.633.08-3.675L31.946.462a1.6 1.6 0 012.248 0z"/><path fill-rule="evenodd" clip-rule="evenodd" d="M3.02 17.19c0-7.84 6.407-14.194 14.31-14.194 7.903 0 14.31 6.354 14.31 14.193 0 7.84-6.407 14.194-14.31 14.194-7.903 0-14.31-6.354-14.31-14.194zM17.33 6.15c-6.147 0-11.13 4.942-11.13 11.04 0 .704.067 1.392.194 2.06a4.775 4.775 0 013.516-1.535c2.634 0 4.77 2.118 4.77 4.731a4.731 4.731 0 01-2.86 4.337 11.148 11.148 0 005.51 1.446c5.392 0 9.888-3.803 10.912-8.852a7.96 7.96 0 01-6.672 3.595c-4.39 0-7.95-3.53-7.95-7.885S17.18 7.2 21.57 7.2c.183 0 .365.006.546.019a11.162 11.162 0 00-4.786-1.07zm-.53 8.937c0-2.613 2.136-4.732 4.77-4.732 2.634 0 4.77 2.119 4.77 4.732s-2.136 4.731-4.77 4.731c-2.634 0-4.77-2.118-4.77-4.731zm-6.89 5.782c-.878 0-1.59.706-1.59 1.577s.712 1.577 1.59 1.577c.878 0 1.59-.706 1.59-1.577 0-.87-.712-1.577-1.59-1.577z"/></symbol><symbol viewBox="0 0 21 21" id="globe-location" xmlns="http://www.w3.org/2000/svg"><path d="M10.423.665c5.39 0 9.758 4.264 9.758 9.525 0 .372-.022.74-.065 1.102a5.38 5.38 0 00-1.4-1.008v-.094c0-.656-.078-1.294-.23-1.905H15.21c.05.494.079 1 .088 1.515a5.42 5.42 0 00-1.46.484v-.094c0-.658-.034-1.295-.1-1.906h-6.63a17.636 17.636 0 00.133 4.762h4.036a5.1 5.1 0 00-.344 1.428H7.555c.636 2.3 1.742 3.811 2.868 3.811.443 0 .884-.235 1.294-.66a9.571 9.571 0 001.365 1.73 9.984 9.984 0 01-2.66.359c-5.388 0-9.755-4.265-9.755-9.524C.666 4.93 5.034.665 10.423.665zm-4.382 13.81H3.385a8.28 8.28 0 003.994 3.248c-.51-.781-.93-1.758-1.239-2.872l-.1-.376zm-.404-6.19H2.36l-.005.015a7.931 7.931 0 00-.226 1.89 7.904 7.904 0 00.531 2.857h3.096a18.88 18.88 0 01-.212-2.857c0-.652.03-1.29.092-1.906zM7.38 2.655l-.022.008a8.24 8.24 0 00-4.496 4.193h2.974c.306-1.669.839-3.123 1.544-4.2zm3.044-.563l-.114.005c-1.233.112-2.426 2.017-2.98 4.759h6.188c-.553-2.733-1.74-4.637-2.971-4.757l-.123-.007zm3.044.562l.103.167c.654 1.059 1.149 2.45 1.44 4.035h2.973a8.231 8.231 0 00-4.233-4.086l-.283-.116zm7.199 12.296a4.234 4.234 0 00-1.286-3.03 4.446 4.446 0 00-3.104-1.255 4.445 4.445 0 00-3.105 1.255 4.234 4.234 0 00-1.286 3.03c0 1.774 1.385 3.633 4.098 5.619a.496.496 0 00.585 0c2.713-1.986 4.098-3.845 4.098-5.619zm-5.854 0a1.398 1.398 0 01.415-1.034 1.495 1.495 0 012.096 0 1.4 1.4 0 01.415 1.034c0 .38-.154.742-.428 1.01a1.482 1.482 0 01-1.035.419c-.388 0-.76-.15-1.035-.419a1.41 1.41 0 01-.428-1.01z"/></symbol><symbol viewBox="0 0 33 44" id="lightning" xmlns="http://www.w3.org/2000/svg"><path fill-rule="evenodd" clip-rule="evenodd" d="M21.31.135c.63.266 1.039.879 1.039 1.557v15.791h8.944c.607 0 1.168.32 1.474.84.306.52.31 1.161.012 1.685l-1.12 1.965a80.789 80.789 0 01-16.045 19.95l-1.81 1.636c-.5.451-1.222.567-1.84.297a1.692 1.692 0 01-1.017-1.548V26.65h-9.24A1.7 1.7 0 010 24.959c0-.303.08-.587.22-.833A80.858 80.858 0 0115.414 4.33L19.459.472a1.718 1.718 0 011.852-.337zM4.63 23.266h8.024a1.7 1.7 0 011.707 1.693v13.5a77.39 77.39 0 0014.004-17.591h-7.723a1.7 1.7 0 01-1.707-1.693V5.667L17.78 6.77A77.5 77.5 0 004.63 23.266z"/></symbol><symbol viewBox="0 0 20 19" id="linkedin" xmlns="http://www.w3.org/2000/svg"><path fill-rule="evenodd" clip-rule="evenodd" d="M2.727 0A2.72 2.72 0 000 2.714 2.72 2.72 0 002.727 5.43a2.72 2.72 0 002.728-2.715A2.72 2.72 0 002.727 0zm-.909 2.714c0-.5.407-.904.91-.904.501 0 .908.405.908.904 0 .5-.407.905-.909.905a.907.907 0 01-.909-.905zM13.636 5.429a6.38 6.38 0 00-4.5 1.855 6.318 6.318 0 00-1.863 4.478v6.333c0 .5.407.905.909.905h3.636c.502 0 .91-.405.91-.905v-6.333a.903.903 0 01.908-.905c.242 0 .473.096.643.265.17.17.267.4.267.64v6.333c0 .5.407.905.909.905h3.636c.502 0 .909-.405.909-.905v-6.333c0-1.68-.67-3.29-1.864-4.478a6.379 6.379 0 00-4.5-1.855zm0 1.81a4.557 4.557 0 00-3.214 1.324 4.513 4.513 0 00-1.331 3.199v5.428h1.818v-5.428c0-.72.287-1.41.799-1.92a2.734 2.734 0 013.857 0c.511.51.799 1.2.799 1.92v5.428h1.818v-5.428c0-1.2-.48-2.35-1.331-3.199a4.557 4.557 0 00-3.215-1.325zM0 7.238c0-.5.407-.905.91-.905h3.635c.503 0 .91.405.91.905v10.857c0 .5-.407.905-.91.905H.91A.907.907 0 010 18.095V7.238zm1.818.905v9.047h1.818V8.143H1.818z"/></symbol><symbol viewBox="0 0 44 44" id="location" xmlns="http://www.w3.org/2000/svg"><path d="M22 14.326a7.674 7.674 0 100 15.348 7.674 7.674 0 000-15.348z"/><path fill-rule="evenodd" clip-rule="evenodd" d="M22 0c.848 0 1.535.687 1.535 1.535v2.623c8.665.735 15.571 7.642 16.307 16.307h2.623a1.535 1.535 0 010 3.07h-2.623C39.106 32.2 32.2 39.106 23.535 39.842v2.623a1.535 1.535 0 01-3.07 0v-2.623C11.8 39.106 4.893 32.2 4.158 23.535H1.535a1.535 1.535 0 010-3.07h2.623C4.893 11.8 11.8 4.893 20.465 4.158V1.535C20.465.687 21.152 0 22 0zM7.163 22c0 8.194 6.643 14.837 14.837 14.837 8.194 0 14.837-6.643 14.837-14.837 0-8.194-6.643-14.837-14.837-14.837-8.194 0-14.837 6.643-14.837 14.837z"/></symbol><symbol viewBox="0 0 21 21" id="location-2" xmlns="http://www.w3.org/2000/svg"><path fill-rule="evenodd" clip-rule="evenodd" d="M.5 7.974v.013zm0 0a.834.834 0 01.548-.758L19.381.55a.833.833 0 011.068 1.069L13.783 19.95a.833.833 0 01-.77.549H13a.832.832 0 01-.775-.525l-3.2-8-8-3.202A.833.833 0 01.5 7.998M2 8.01zm10.97 9.788l-2.791-6.978L3.202 8.03l15.35-5.582-5.582 15.35z"/></symbol><symbol viewBox="0 0 44 38" id="people" xmlns="http://www.w3.org/2000/svg"><path d="M15.72 6.328c0-1.678.662-3.288 1.84-4.475A6.255 6.255 0 0122 0c1.665 0 3.263.667 4.44 1.853a6.353 6.353 0 011.84 4.475 6.353 6.353 0 01-1.84 4.475A6.255 6.255 0 0122 12.656a6.255 6.255 0 01-4.44-1.853 6.353 6.353 0 01-1.84-4.475zM22 3.168a3.115 3.115 0 00-2.218.925 3.163 3.163 0 00-.919 2.235 3.183 3.183 0 00.92 2.235A3.135 3.135 0 0022 9.49c.832 0 1.63-.333 2.218-.926a3.173 3.173 0 00.919-2.235c0-.838-.33-1.642-.92-2.235A3.124 3.124 0 0022 3.167zm9.429 4.744a4.783 4.783 0 011.38-3.36 4.71 4.71 0 013.334-1.391 4.683 4.683 0 013.333 1.391 4.754 4.754 0 011.381 3.36 4.77 4.77 0 01-1.38 3.359 4.696 4.696 0 01-3.334 1.391c-1.25 0-2.45-.5-3.334-1.391a4.77 4.77 0 01-1.38-3.36zm4.714-1.584c-.417 0-.817.167-1.111.464a1.59 1.59 0 000 2.24 1.565 1.565 0 002.222 0 1.59 1.59 0 000-2.24 1.565 1.565 0 00-1.111-.464zM7.857 3.161c-1.25 0-2.45.5-3.333 1.391a4.77 4.77 0 00-1.381 3.36 4.77 4.77 0 001.38 3.359 4.696 4.696 0 003.334 1.391c1.25 0 2.45-.5 3.334-1.391a4.77 4.77 0 001.38-3.36 4.77 4.77 0 00-1.38-3.359 4.696 4.696 0 00-3.334-1.391zM6.286 7.91c0-.42.165-.822.46-1.12a1.565 1.565 0 012.222 0 1.59 1.59 0 010 2.24 1.565 1.565 0 01-2.222 0 1.59 1.59 0 01-.46-1.12zm3.985 7.919a6.34 6.34 0 00-.842 3.167H3.143v7.918c0 .788.194 1.563.565 2.257a4.738 4.738 0 001.56 1.715 4.692 4.692 0 004.462.389c.233 1.048.597 2.05 1.069 2.984a7.802 7.802 0 01-7.337-.78 7.897 7.897 0 01-2.543-2.847A7.967 7.967 0 010 26.915v-7.918c0-.84.331-1.646.92-2.24a3.13 3.13 0 012.223-.927h7.128zM33.2 34.26a7.802 7.802 0 007.337-.78 7.896 7.896 0 002.543-2.847A7.967 7.967 0 0044 26.915v-7.918a3.18 3.18 0 00-.92-2.24 3.13 3.13 0 00-2.223-.927H33.73c.534.93.842 2.01.842 3.167h6.286v7.918a4.78 4.78 0 01-.565 2.257 4.738 4.738 0 01-1.56 1.715 4.693 4.693 0 01-4.462.389A12.901 12.901 0 0133.2 34.26zM15.714 15.827a3.13 3.13 0 00-2.222.927 3.18 3.18 0 00-.92 2.24v9.504a9.54 9.54 0 002.761 6.72A9.392 9.392 0 0022 38c2.5 0 4.899-1.001 6.667-2.783a9.54 9.54 0 002.762-6.719v-9.501a3.18 3.18 0 00-.921-2.24 3.13 3.13 0 00-2.222-.927H15.714v-.004zm0 3.167h12.572v9.504a6.36 6.36 0 01-1.841 4.48A6.261 6.261 0 0122 34.832a6.261 6.261 0 01-4.445-1.855 6.36 6.36 0 01-1.84-4.48v-9.504z"/></symbol><symbol viewBox="0 0 21 17" id="twitter" xmlns="http://www.w3.org/2000/svg"><path d="M20.985 1.188a.907.907 0 00-1.373-.78 6.8 6.8 0 01-1.702.72A4.684 4.684 0 0014.844 0a4.757 4.757 0 00-4.748 4.598 10.028 10.028 0 01-6.192-3.563.92.92 0 00-.779-.332.908.908 0 00-.714.454 4.788 4.788 0 00-.22 4.33l-.001.002a.946.946 0 00-.45.807 2.76 2.76 0 00.024.4 4.707 4.707 0 001.425 3.007.906.906 0 00-.06.7 4.727 4.727 0 002.146 2.653 6.79 6.79 0 01-3.262.407.909.909 0 00-.604 1.664A11.77 11.77 0 007.779 17c2.562.03 5.062-.789 7.11-2.327a11.612 11.612 0 004.218-6.176c.321-1.074.485-2.19.486-3.31v-.183a5.239 5.239 0 001.392-3.815zM17.98 4.105a.903.903 0 00-.212.638c.009.15.008.3.008.442a9.824 9.824 0 01-.413 2.798 9.715 9.715 0 01-9.584 7.2 9.95 9.95 0 01-2.318-.273 8.617 8.617 0 002.674-1.42.909.909 0 00-.547-1.622 2.917 2.917 0 01-2.012-.848c.136-.026.27-.058.405-.096a.909.909 0 00-.073-1.765 2.908 2.908 0 01-2.045-1.567c.165.022.33.036.496.042A.928.928 0 005.252 7a.907.907 0 00-.364-1.032A2.903 2.903 0 013.6 3.362a11.832 11.832 0 007.46 3.16.928.928 0 00.743-.326.909.909 0 00.187-.788 2.863 2.863 0 01-.079-.662 2.933 2.933 0 014.095-2.69c.367.16.697.394.968.687a.902.902 0 00.837.27c.374-.072.742-.17 1.102-.292-.246.502-.56.968-.933 1.384z"/></symbol></svg>